<?xml version="1.0" standalone="no"?>
<!DOCTYPE svg PUBLIC "-//W3C//DTD SVG 20010904//EN"
 "http://www.w3.org/TR/2001/REC-SVG-20010904/DTD/svg10.dtd">
<svg version="1.0" xmlns="http://www.w3.org/2000/svg"
 width="178.000000pt" height="145.000000pt" viewBox="0 0 178.000000 145.000000"
 preserveAspectRatio="xMidYMid meet">

<g transform="translate(0.000000,145.000000) scale(0.100000,-0.100000)"
fill="#000000" stroke="none">
<path d="M800 1233 l-135 -78 -3 -156 -2 -157 117 -68 c65 -37 127 -73 138
-80 18 -11 36 -4 155 64 l135 78 3 160 2 159 -135 78 c-74 42 -136 77 -137 77
-2 0 -64 -35 -138 -77z m120 5 c0 -19 -18 -32 -89 -71 -79 -42 -121 -52 -121
-28 0 7 190 120 203 121 4 0 7 -10 7 -22z m127 -89 c70 -38 98 -48 106 -40 23
23 27 8 27 -99 0 -107 -4 -122 -27 -99 -8 8 -40 -5 -119 -49 l-109 -61 -94 51
c-78 42 -97 49 -112 39 -10 -6 -21 -11 -24 -11 -3 0 -5 52 -5 115 l0 115 23
-14 c21 -14 29 -12 127 44 58 32 107 59 109 59 2 1 46 -22 98 -50z m116 -281
c15 -11 3 -21 -93 -75 -60 -35 -112 -63 -115 -63 -4 0 -5 12 -3 27 2 23 17 36
88 75 93 52 99 54 123 36z"/>
<path d="M872 1005 c4 -127 22 -129 26 -2 2 83 0 97 -13 97 -13 0 -15 -14 -13
-95z"/>
<path d="M956 1056 c-20 -23 -36 -47 -36 -52 0 -14 86 -104 99 -104 20 0 12
16 -30 64 l-42 47 44 45 c37 38 40 44 22 44 -13 0 -35 -17 -57 -44z"/>
<path d="M470 485 c0 -78 3 -95 15 -95 12 0 15 17 15 95 0 78 -3 95 -15 95
-12 0 -15 -17 -15 -95z"/>
<path d="M557 542 c-20 -21 -37 -44 -37 -52 1 -24 79 -100 102 -100 19 0 15 7
-27 50 l-49 50 44 45 c36 37 41 45 24 45 -11 0 -37 -17 -57 -38z"/>
<path d="M760 486 c0 -57 4 -96 10 -96 6 0 10 30 11 68 l1 67 31 -67 c18 -38
38 -68 44 -68 7 0 26 28 42 63 l29 62 1 -62 c1 -49 4 -63 16 -63 12 0 15 17
15 95 0 88 -1 95 -20 95 -11 0 -20 -4 -20 -9 0 -5 -14 -40 -31 -78 l-30 -68
-33 75 c-19 43 -40 76 -50 78 -14 3 -16 -9 -16 -92z"/>
<path d="M1250 555 c0 -21 -5 -25 -30 -25 -59 0 -90 -67 -54 -118 12 -18 25
-22 65 -22 l49 0 0 95 c0 78 -3 95 -15 95 -9 0 -15 -9 -15 -25z m0 -100 c0
-40 -2 -45 -23 -45 -30 0 -47 18 -47 50 0 34 7 40 42 40 27 0 28 -2 28 -45z"/>
<path d="M1010 510 c-24 -24 -26 -67 -4 -98 13 -19 24 -22 57 -20 35 2 44 8
55 31 36 75 -51 144 -108 87z m75 -16 c34 -35 -3 -103 -42 -78 -25 16 -29 65
-7 81 23 17 29 16 49 -3z"/>
<path d="M1331 511 c-25 -25 -27 -68 -5 -99 12 -17 25 -22 60 -22 24 0 44 5
44 10 0 6 -15 10 -33 10 -31 0 -57 14 -57 32 0 4 20 8 44 8 49 0 61 14 42 51
-16 33 -67 38 -95 10z m67 -13 c20 -20 14 -28 -23 -28 -19 0 -35 4 -35 8 0 12
22 32 35 32 6 0 16 -5 23 -12z"/>
<path d="M655 460 c-4 -6 10 -10 35 -10 25 0 39 4 35 10 -3 6 -19 10 -35 10
-16 0 -32 -4 -35 -10z"/>
<path d="M561 238 c1 -29 4 -41 6 -26 3 20 11 28 31 31 l27 4 -27 2 c-17 0
-28 7 -28 15 0 8 12 17 28 19 25 4 25 4 -5 6 l-33 1 1 -52z"/>
<path d="M641 238 c1 -29 4 -41 6 -26 3 20 11 28 31 31 l27 4 -27 2 c-17 0
-28 7 -28 15 0 8 12 17 28 19 25 4 25 4 -5 6 l-33 1 1 -52z"/>
<path d="M762 278 c-24 -24 -14 -65 21 -85 l33 -20 12 26 c24 50 9 91 -33 91
-12 0 -26 -5 -33 -12z m58 -13 c20 -25 8 -50 -25 -50 -21 0 -31 5 -33 18 -4
21 14 47 33 47 7 0 18 -7 25 -15z"/>
<path d="M862 238 c-1 -21 1 -38 6 -39 54 -6 52 -7 51 30 -2 30 -3 32 -6 9 -6
-42 -40 -38 -46 5 -4 31 -4 31 -5 -5z"/>
<path d="M949 259 c-11 -7 -8 -9 11 -9 25 -1 25 -1 3 -10 -23 -9 -31 -34 -15
-44 20 -12 52 7 52 30 0 27 -29 47 -51 33z m31 -39 c0 -5 -7 -10 -16 -10 -8 0
-12 5 -9 10 3 6 10 10 16 10 5 0 9 -4 9 -10z"/>
<path d="M1100 236 c0 -19 3 -37 8 -40 4 -2 7 13 7 35 0 21 -3 39 -7 39 -5 0
-8 -15 -8 -34z"/>
<path d="M1142 238 c-1 -21 1 -38 6 -39 54 -6 52 -7 51 30 -2 30 -3 32 -6 9
-6 -42 -40 -38 -46 5 -4 31 -4 31 -5 -5z"/>
<path d="M1022 223 c1 -37 1 -37 5 -5 5 39 33 45 33 7 0 -14 5 -25 11 -25 6 0
9 12 7 28 -2 21 -9 28 -30 30 -26 3 -28 1 -26 -35z"/>
<path d="M1221 223 c1 -36 2 -36 8 -9 8 38 31 47 31 12 0 -13 5 -28 10 -31 6
-4 10 7 10 24 0 43 27 41 33 -1 4 -32 4 -32 5 5 l2 37 -50 0 -50 0 1 -37z"/>
</g>
</svg>
